<?xml version="1.0" encoding="utf-8"?><svg width="928" height="517" viewBox="0 0 928 517" id="svg2" version="1.1" xml:space="preserve" xmlns="http://www.w3.org/2000/svg" xmlns:xlink="http://www.w3.org/1999/xlink" xmlns:xml="http://www.w3.org/XML/1998/namespace" xmlns:rdf="http://www.w3.org/1999/02/22-rdf-syntax-ns#" xmlns:cc="http://creativecommons.org/ns#" xmlns:dc="http://purl.org/dc/elements/1.1/"><metadata id="metadata8"></metadata><defs id="defs6"></defs><g transform="matrix(1.3333333,0,0,-1.3333333,0,156.68)" id="g10"><g transform="scale(0.1)" id="g12"><path id="path14" d="M 2101.25,0 H 0 V 1175.06 H 2101.25 V 0 M 10,1165.06 V 10 H 2091.25 V 1165.06 H 10 m -5,5 v -5 5" style="fill: #ffffff; fill-opacity: 1; fill-rule: nonzero; stroke: none" /><path id="path16" d="m 784.168,585.574 c 0,-116.992 -94.844,-211.832 -211.824,-211.832 -116.992,0 -211.84,94.84 -211.84,211.832 0,117 94.848,211.813 211.84,211.813 116.98,0 211.824,-94.813 211.824,-211.813" style="fill: #b2db18; fill-opacity: 1; fill-rule: nonzero; stroke: none" /><path id="path18" d="m 405.703,558.344 c 64.914,-37.082 86.301,-100.461 86.301,-100.461 59.312,74.219 177.094,147.941 260.101,163.652 -76.367,17.395 -181.636,-28.855 -246.582,-91.101 0,0 -50.8,35.234 -99.82,27.91" style="fill: #231f20; fill-opacity: 1; fill-rule: nonzero; stroke: none" /><path id="path20" d="m 392.559,579.422 c 0,0 88.66,173.519 359.546,59.781 0,0 -129.285,32.586 -246.625,-83.211 0,0 -40.355,36.571 -112.921,23.43" style="fill: #ffffff; fill-opacity: 1; fill-rule: nonzero; stroke: none" /><path id="path22" d="m 910.984,585.574 h -2 C 908.98,492.617 871.305,408.469 810.383,347.543 749.453,286.617 665.309,248.938 572.344,248.938 c -92.973,0 -177.121,37.679 -238.047,98.605 -60.926,60.926 -98.602,145.074 -98.606,238.031 0.004,92.969 37.68,177.114 98.606,238.035 60.926,60.918 145.074,98.586 238.047,98.586 92.965,0 177.109,-37.668 238.039,-98.586 60.922,-60.921 98.597,-145.066 98.601,-238.035 h 2 2 c -0.004,188.137 -152.515,340.621 -340.64,340.621 -188.141,0 -340.649,-152.484 -340.653,-340.621 0.004,-188.113 152.512,-340.636 340.653,-340.636 188.125,0 340.636,152.523 340.64,340.636 h -2" style="fill: #231f20; fill-opacity: 1; fill-rule: nonzero; stroke: none" /><path id="path24" d="m 332.355,519.305 1.805,-6.227 -43.969,-12.742 3.586,-12.383 -5.39,-1.562 -9,31.047 5.394,1.566 3.606,-12.453 43.968,12.754" style="fill: #231f20; fill-opacity: 1; fill-rule: nonzero; stroke: none" /><path id="path26" d="m 306.941,546.258 -1.675,13.883 -23.864,-9.563 0.02,-0.148 z m -32.253,-0.695 -1.02,8.441 49.371,19.871 0.777,-6.43 -13.566,-5.386 1.996,-16.485 14.465,-2.144 0.777,-6.426 -52.8,8.559" style="fill: #231f20; fill-opacity: 1; fill-rule: nonzero; stroke: none" /><path id="path28" d="m 271.637,586.766 0.406,7.047 19.723,8.246 -18.649,10.656 0.367,6.465 24.496,-14.231 26.864,12.168 -0.399,-7.047 -21.132,-9.031 19.949,-11.738 -0.371,-6.465 -25.305,15.137 -25.949,-11.207" style="fill: #231f20; fill-opacity: 1; fill-rule: nonzero; stroke: none" /><path id="path30" d="m 310.383,672.355 2.547,7.11 c 0.777,2.176 0.683,4.32 -0.293,6.449 -0.961,2.137 -3.055,3.77 -6.262,4.926 -2.711,0.969 -5.078,1.078 -7.105,0.332 -2.032,-0.758 -3.579,-2.625 -4.645,-5.602 l -2.406,-6.711 z m -25.227,2.157 4.422,12.332 c 0.238,0.679 0.57,1.511 0.977,2.515 0.41,0.996 0.937,2.004 1.582,3.028 0.644,1.015 1.445,1.976 2.406,2.883 0.965,0.902 2.125,1.609 3.477,2.117 1.359,0.508 2.918,0.75 4.695,0.726 1.773,-0.019 3.816,-0.449 6.121,-1.273 2.254,-0.809 4.141,-1.863 5.633,-3.16 1.496,-1.293 2.621,-2.774 3.375,-4.438 0.761,-1.668 1.136,-3.457 1.133,-5.383 0,-1.925 -0.368,-3.894 -1.086,-5.914 l -2.629,-7.343 20.461,-7.332 -2.18,-6.098 -48.387,17.34" style="fill: #231f20; fill-opacity: 1; fill-rule: nonzero; stroke: none" /><path id="path32" d="m 328.688,717.602 3.152,5.418 c 0.453,0.781 0.945,1.73 1.476,2.835 0.532,1.11 0.805,2.297 0.821,3.567 0.019,1.266 -0.367,2.558 -1.157,3.879 -0.792,1.316 -2.261,2.601 -4.417,3.855 -2.243,1.305 -4.383,1.629 -6.422,0.981 -2.043,-0.645 -3.821,-2.274 -5.344,-4.887 l -3.793,-6.531 z m -23.418,6.117 8.355,14.375 c 2.047,3.531 4.637,5.742 7.77,6.64 3.132,0.899 6.464,0.325 9.984,-1.722 1.207,-0.699 2.344,-1.508 3.414,-2.442 1.074,-0.925 1.961,-1.949 2.664,-3.078 0.703,-1.129 1.191,-2.344 1.457,-3.656 0.262,-1.313 0.172,-2.691 -0.285,-4.141 l 0.129,-0.074 c 1.332,1.817 3.012,2.844 5.027,3.078 2.024,0.231 4.024,-0.148 6,-1.133 l 7.813,-4.039 c 1.269,-0.683 2.336,-1.191 3.195,-1.523 l 2.25,-0.645 1.633,0.016 1.269,0.465 -3.781,-6.5 -1.473,0.039 -1.898,0.531 -2.023,0.813 -1.868,0.879 -7.121,3.636 c -1.609,0.77 -2.965,1.18 -4.066,1.239 -1.106,0.058 -2.059,-0.09 -2.856,-0.461 l -1.984,-1.555 -1.402,-2.055 -4.301,-7.41 19.789,-11.496 -3.258,-5.605 -44.433,25.824" style="fill: #231f20; fill-opacity: 1; fill-rule: nonzero; stroke: none" /><path id="path34" d="m 364.395,755.066 9.117,10.606 -23.153,11.16 -0.097,-0.109 z m -22.274,23.34 5.535,6.442 47.989,-23.028 -4.227,-4.91 -13.121,6.375 -10.828,-12.594 8.187,-12.125 -4.23,-4.91 -29.305,44.75" style="fill: #231f20; fill-opacity: 1; fill-rule: nonzero; stroke: none" /><path id="path36" d="m 418.484,803.871 c 1.418,-1.992 2.598,-4.051 3.528,-6.164 0.933,-2.113 1.476,-4.219 1.621,-6.316 0.152,-2.094 -0.203,-4.161 -1.074,-6.184 -0.868,-2.019 -2.383,-3.906 -4.551,-5.652 -2.84,-2.285 -5.598,-3.508 -8.281,-3.66 -2.676,-0.161 -5.262,0.398 -7.754,1.656 -2.493,1.258 -4.871,3.004 -7.137,5.25 -2.266,2.234 -4.426,4.629 -6.469,7.168 -2.019,2.504 -3.879,5.121 -5.582,7.851 -1.703,2.719 -2.883,5.453 -3.539,8.188 -0.664,2.73 -0.644,5.383 0.063,7.957 0.703,2.566 2.437,4.961 5.203,7.191 4.074,3.282 7.906,4.582 11.504,3.907 3.593,-0.68 7.047,-2.958 10.347,-6.829 l -5.047,-4.062 c -0.945,1.094 -1.937,2.055 -2.996,2.902 -1.054,0.848 -2.148,1.446 -3.277,1.797 -1.125,0.356 -2.301,0.41 -3.512,0.168 -1.218,-0.23 -2.472,-0.879 -3.761,-1.91 -1.747,-1.414 -2.778,-2.965 -3.098,-4.672 -0.32,-1.695 -0.145,-3.527 0.523,-5.484 0.672,-1.961 1.746,-4.028 3.211,-6.203 1.469,-2.172 3.133,-4.418 5.004,-6.735 1.863,-2.316 3.707,-4.43 5.512,-6.328 1.816,-1.894 3.605,-3.383 5.371,-4.453 1.773,-1.07 3.527,-1.637 5.254,-1.684 1.734,-0.054 3.473,0.625 5.215,2.028 1.519,1.222 2.48,2.519 2.875,3.886 0.402,1.371 0.453,2.762 0.148,4.188 -0.297,1.418 -0.859,2.816 -1.683,4.183 -0.821,1.375 -1.711,2.688 -2.668,3.958 l 5.05,4.058" style="fill: #231f20; fill-opacity: 1; fill-rule: nonzero; stroke: none" /><path id="path38" d="m 456.242,805.801 -5.683,-3.102 -21.914,40.196 -11.313,-6.172 -2.691,4.929 28.379,15.477 2.683,-4.934 -11.371,-6.203 21.91,-40.191" style="fill: #231f20; fill-opacity: 1; fill-rule: nonzero; stroke: none" /><path id="path40" d="m 462.902,865.281 6.055,2.289 18.223,-48.05 -6.055,-2.301 -18.223,48.062" style="fill: #231f20; fill-opacity: 1; fill-rule: nonzero; stroke: none" /><path id="path42" d="m 519.508,828.836 -6.313,-1.449 -10.265,44.613 -12.551,-2.887 -1.266,5.469 31.504,7.246 1.254,-5.473 -12.625,-2.902 10.262,-44.617" style="fill: #231f20; fill-opacity: 1; fill-rule: nonzero; stroke: none" /><path id="path44" d="m 541.855,884.32 6.454,0.578 4.629,-51.183 -6.458,-0.582 -4.625,51.187" style="fill: #231f20; fill-opacity: 1; fill-rule: nonzero; stroke: none" /><path id="path46" d="m 589.41,881.172 c -2.23,0.125 -4.047,-0.34 -5.41,-1.383 -1.375,-1.055 -2.469,-2.531 -3.289,-4.434 -0.816,-1.894 -1.406,-4.152 -1.77,-6.75 -0.375,-2.597 -0.644,-5.375 -0.808,-8.347 -0.172,-2.977 -0.223,-5.774 -0.149,-8.391 0.071,-2.625 0.403,-4.926 0.996,-6.91 0.59,-1.98 1.504,-3.57 2.766,-4.769 1.242,-1.208 2.981,-1.872 5.215,-1.993 2.246,-0.125 4.043,0.332 5.422,1.387 1.375,1.047 2.469,2.523 3.285,4.426 0.812,1.898 1.41,4.148 1.773,6.746 0.372,2.598 0.641,5.383 0.809,8.355 0.164,2.969 0.215,5.766 0.145,8.387 -0.067,2.629 -0.399,4.93 -0.997,6.91 -0.589,1.981 -1.515,3.571 -2.761,4.766 -1.25,1.207 -2.989,1.871 -5.227,2 z m 0.301,5.176 c 3.543,-0.203 6.352,-1.145 8.41,-2.828 2.07,-1.68 3.633,-3.825 4.68,-6.43 1.062,-2.61 1.687,-5.516 1.883,-8.723 0.207,-3.207 0.214,-6.418 0.031,-9.629 -0.176,-3.258 -0.559,-6.457 -1.125,-9.593 -0.567,-3.141 -1.512,-5.95 -2.86,-8.418 -1.339,-2.477 -3.136,-4.426 -5.378,-5.856 -2.247,-1.441 -5.141,-2.051 -8.676,-1.851 -3.547,0.203 -6.352,1.144 -8.422,2.824 -2.066,1.679 -3.629,3.82 -4.684,6.429 -1.05,2.61 -1.675,5.508 -1.879,8.688 -0.207,3.187 -0.214,6.406 -0.023,9.66 0.18,3.211 0.555,6.399 1.117,9.567 0.567,3.164 1.52,5.976 2.86,8.449 1.343,2.472 3.136,4.422 5.382,5.859 2.243,1.43 5.137,2.051 8.684,1.852" style="fill: #231f20; fill-opacity: 1; fill-rule: nonzero; stroke: none" /><path id="path48" d="m 632.438,880.23 6.066,-1.57 1.883,-0.484 5.695,-45.793 0.137,-0.035 10.75,41.531 6.133,-1.586 -12.879,-49.758 -6.055,1.574 -2.375,0.61 -5.535,44.41 -0.137,0.035 -10.43,-40.273 -6.125,1.586 12.872,49.753" style="fill: #231f20; fill-opacity: 1; fill-rule: nonzero; stroke: none" /><path id="path50" d="m 688.551,862.785 24.043,-11.293 -2.391,-5.082 -18.164,8.535 -6.867,-14.59 17.141,-8.05 -2.395,-5.078 -17.129,8.039 -7.832,-16.672 18.965,-8.91 -2.391,-5.082 -24.824,11.66 21.844,46.523" style="fill: #231f20; fill-opacity: 1; fill-rule: nonzero; stroke: none" /><path id="path52" d="m 726.121,816.059 5.106,-3.629 c 0.734,-0.528 1.632,-1.11 2.687,-1.742 1.055,-0.625 2.207,-1.008 3.477,-1.137 1.257,-0.141 2.578,0.129 3.964,0.793 1.387,0.664 2.801,2.011 4.247,4.043 1.496,2.117 2.031,4.218 1.574,6.308 -0.461,2.09 -1.926,4.016 -4.387,5.762 l -6.16,4.383 z m 8.231,22.757 13.554,-9.632 c 3.321,-2.364 5.285,-5.149 5.899,-8.344 0.605,-3.203 -0.274,-6.469 -2.637,-9.793 -0.801,-1.137 -1.719,-2.192 -2.734,-3.172 -1.016,-0.98 -2.129,-1.773 -3.309,-2.375 -1.191,-0.594 -2.453,-0.973 -3.781,-1.113 -1.328,-0.141 -2.696,0.078 -4.09,0.66 l -0.09,-0.117 c 1.691,-1.496 2.559,-3.258 2.598,-5.289 0.051,-2.036 -0.508,-3.993 -1.668,-5.871 l -4.746,-7.411 c -0.793,-1.199 -1.399,-2.214 -1.809,-3.043 l -0.848,-2.179 -0.128,-1.625 0.351,-1.305 -6.133,4.356 0.168,1.468 0.711,1.836 0.988,1.949 1.055,1.766 4.277,6.766 c 0.907,1.531 1.446,2.843 1.602,3.933 0.156,1.094 0.086,2.055 -0.207,2.887 l -1.367,2.117 -1.914,1.582 -6.981,4.965 -13.261,-18.656 -5.286,3.758 29.786,41.882" style="fill: #231f20; fill-opacity: 1; fill-rule: nonzero; stroke: none" /><path id="path54" d="m 783.992,779.473 c 0.965,0.929 1.766,1.886 2.391,2.859 0.625,0.977 1.008,1.965 1.144,2.957 0.137,1.004 0.008,2.027 -0.382,3.09 -0.391,1.059 -1.102,2.121 -2.137,3.191 -1.906,1.961 -3.867,2.985 -5.91,3.047 -2.032,0.067 -4.032,-0.847 -5.996,-2.754 -1.727,-1.672 -2.637,-3.383 -2.723,-5.152 -0.09,-1.773 0.215,-3.566 0.926,-5.402 0.695,-1.836 1.574,-3.719 2.597,-5.641 1.028,-1.93 1.817,-3.895 2.344,-5.895 0.539,-2.003 0.586,-4.058 0.156,-6.156 -0.437,-2.101 -1.777,-4.234 -4.023,-6.406 -2.137,-2.07 -4.258,-3.434 -6.356,-4.094 -2.101,-0.664 -4.093,-0.844 -5.988,-0.535 -1.894,0.297 -3.672,0.961 -5.332,1.996 -1.668,1.024 -3.133,2.192 -4.402,3.5 -2.11,2.18 -3.567,4.25 -4.406,6.211 -0.829,1.965 -1.141,3.867 -0.926,5.719 0.222,1.84 0.918,3.687 2.109,5.539 1.18,1.848 2.762,3.723 4.727,5.617 l 4.5,-4.652 c -1.035,-1 -2.012,-2.047 -2.918,-3.129 -0.93,-1.09 -1.582,-2.258 -1.985,-3.512 -0.39,-1.246 -0.379,-2.578 0.02,-3.992 0.402,-1.418 1.406,-2.949 3,-4.606 0.867,-0.894 1.844,-1.593 2.93,-2.085 1.074,-0.493 2.168,-0.747 3.289,-0.766 1.125,-0.016 2.238,0.195 3.351,0.633 1.102,0.441 2.156,1.144 3.153,2.117 1.308,1.262 2.14,2.547 2.48,3.851 0.344,1.301 0.402,2.641 0.188,4.008 -0.227,1.364 -0.665,2.75 -1.329,4.16 -0.664,1.407 -1.328,2.84 -2.011,4.301 -0.676,1.457 -1.289,2.946 -1.848,4.449 -0.566,1.512 -0.867,3.032 -0.918,4.567 -0.039,1.527 0.266,3.097 0.91,4.707 0.653,1.601 1.824,3.223 3.516,4.851 0.867,0.836 1.98,1.696 3.379,2.571 1.375,0.879 2.988,1.445 4.812,1.703 1.817,0.254 3.781,0.039 5.891,-0.66 2.109,-0.692 4.297,-2.215 6.57,-4.559 3.438,-3.551 5.09,-6.973 4.973,-10.262 -0.129,-3.289 -1.875,-6.636 -5.254,-10.046 l -4.512,4.66" style="fill: #231f20; fill-opacity: 1; fill-rule: nonzero; stroke: none" /><path id="path56" d="m 815.914,720.082 3.332,-6.465 1.328,-2.105 c 0.586,-0.805 1.336,-1.5 2.274,-2.063 0.949,-0.57 2.082,-0.879 3.398,-0.926 1.32,-0.043 2.852,0.379 4.602,1.286 2.429,1.254 3.972,2.816 4.629,4.691 0.644,1.875 0.253,4.223 -1.204,7.035 l -3.261,6.332 z m -21.367,-11.027 3.957,-7.676 c 0.769,-1.492 1.648,-2.625 2.644,-3.406 1.008,-0.782 2.051,-1.285 3.137,-1.508 1.082,-0.223 2.207,-0.207 3.367,0.043 1.172,0.254 2.317,0.656 3.43,1.234 1.563,0.813 2.781,1.738 3.633,2.766 0.84,1.027 1.406,2.133 1.699,3.305 0.281,1.175 0.301,2.386 0.059,3.64 -0.246,1.25 -0.684,2.496 -1.321,3.731 l -3.464,6.718 z m 38.098,26.949 7.226,-14.008 c 0.77,-1.496 1.328,-3.043 1.668,-4.648 0.344,-1.61 0.344,-3.192 -0.019,-4.746 -0.36,-1.563 -1.114,-3.059 -2.266,-4.489 -1.152,-1.429 -2.832,-2.718 -5.047,-3.867 -1.027,-0.527 -2.129,-0.902 -3.301,-1.137 -1.183,-0.234 -2.336,-0.285 -3.488,-0.148 -1.152,0.129 -2.254,0.445 -3.32,0.937 -1.063,0.497 -2.012,1.172 -2.832,2.036 l -0.125,-0.067 c 0.761,-3.148 0.476,-5.883 -0.86,-8.215 -1.34,-2.324 -3.429,-4.218 -6.23,-5.668 -4.649,-2.402 -8.645,-2.855 -11.985,-1.363 -3.328,1.5 -6.23,4.633 -8.699,9.406 l -6.398,12.411 45.676,23.566" style="fill: #231f20; fill-opacity: 1; fill-rule: nonzero; stroke: none" /><path id="path58" d="m 856.656,668.363 c -0.613,2.153 -1.66,3.7 -3.113,4.649 -1.445,0.945 -3.203,1.488 -5.266,1.621 -2.07,0.14 -4.382,-0.055 -6.953,-0.578 -2.566,-0.516 -5.293,-1.192 -8.144,-2.02 -2.86,-0.836 -5.508,-1.719 -7.957,-2.656 -2.453,-0.945 -4.512,-2.02 -6.184,-3.238 -1.668,-1.219 -2.859,-2.621 -3.574,-4.2 -0.723,-1.578 -0.762,-3.437 -0.145,-5.593 0.633,-2.153 1.668,-3.7 3.114,-4.645 1.457,-0.949 3.203,-1.488 5.273,-1.621 2.063,-0.144 4.375,0.055 6.953,0.57 2.57,0.524 5.285,1.196 8.145,2.028 2.851,0.828 5.508,1.718 7.961,2.656 2.449,0.941 4.511,2.019 6.179,3.242 1.672,1.219 2.864,2.617 3.575,4.192 0.722,1.578 0.761,3.437 0.136,5.593 z m 4.981,1.446 c 0.988,-3.411 1.035,-6.368 0.148,-8.879 -0.898,-2.508 -2.402,-4.692 -4.512,-6.559 -2.101,-1.851 -4.64,-3.418 -7.597,-4.676 -2.949,-1.265 -5.977,-2.34 -9.063,-3.238 -3.136,-0.91 -6.269,-1.625 -9.425,-2.137 -3.153,-0.511 -6.114,-0.55 -8.887,-0.109 -2.781,0.441 -5.223,1.48 -7.324,3.117 -2.09,1.641 -3.641,4.164 -4.629,7.578 -0.996,3.407 -1.035,6.367 -0.137,8.875 0.879,2.512 2.394,4.696 4.504,6.559 2.098,1.859 4.617,3.418 7.558,4.668 2.93,1.254 5.965,2.336 9.09,3.246 3.086,0.898 6.223,1.605 9.407,2.125 3.164,0.527 6.132,0.566 8.914,0.121 2.773,-0.437 5.214,-1.48 7.316,-3.113 2.098,-1.641 3.641,-4.164 4.637,-7.578" style="fill: #231f20; fill-opacity: 1; fill-rule: nonzero; stroke: none" /><path id="path60" d="m 838.648,617.746 1.309,-13.926 24.102,8.918 -0.02,0.141 z m 32.258,-0.172 0.789,-8.457 -49.871,-18.554 -0.605,6.457 13.691,5.007 -1.543,16.543 -14.406,2.528 -0.606,6.449 52.551,-9.973" style="fill: #231f20; fill-opacity: 1; fill-rule: nonzero; stroke: none" /><path id="path62" d="m 848.863,568.781 -0.554,-6.238 c -0.079,-0.914 -0.118,-1.973 -0.129,-3.203 -0.02,-1.227 0.234,-2.414 0.761,-3.578 0.52,-1.149 1.426,-2.157 2.688,-3.02 1.277,-0.859 3.164,-1.394 5.644,-1.609 2.579,-0.238 4.657,0.375 6.231,1.828 1.582,1.441 2.5,3.68 2.762,6.684 l 0.664,7.531 z m 23.809,4.387 -1.465,-16.563 c -0.371,-4.058 -1.766,-7.164 -4.227,-9.308 -2.46,-2.145 -5.722,-3.035 -9.777,-2.664 -1.387,0.117 -2.762,0.375 -4.129,0.75 -1.359,0.387 -2.597,0.937 -3.711,1.66 -1.125,0.727 -2.07,1.629 -2.871,2.707 -0.801,1.074 -1.289,2.355 -1.504,3.855 l -0.136,0.02 c -0.442,-2.211 -1.524,-3.852 -3.262,-4.922 -1.731,-1.062 -3.703,-1.574 -5.91,-1.523 l -8.789,0.355 c -1.434,0.074 -2.625,0.094 -3.536,0.024 -0.925,-0.055 -1.687,-0.184 -2.304,-0.379 l -1.473,-0.7 -0.957,-0.949 0.672,7.485 1.34,0.589 1.953,0.325 2.176,0.125 2.051,-0.008 8,-0.277 c 1.785,-0.024 3.191,0.187 4.207,0.597 1.027,0.422 1.828,0.961 2.394,1.637 l 1.133,2.25 0.398,2.453 0.762,8.535 -22.801,2.028 0.574,6.449 51.192,-4.551" style="fill: #231f20; fill-opacity: 1; fill-rule: nonzero; stroke: none" /><path id="path64" d="m 818.816,523.273 -1.836,-6.363 c -0.761,-2.629 -0.753,-4.89 0.02,-6.797 0.781,-1.883 1.992,-3.511 3.652,-4.859 1.649,-1.363 3.614,-2.488 5.879,-3.395 2.266,-0.898 4.492,-1.668 6.707,-2.316 2.403,-0.688 4.797,-1.281 7.2,-1.777 2.41,-0.5 4.656,-0.625 6.746,-0.411 2.082,0.215 3.937,0.95 5.566,2.172 1.633,1.227 2.852,3.231 3.645,5.993 l 1.843,6.351 z m 46.2,-6.605 -3.828,-13.215 c -1.102,-3.816 -2.625,-6.691 -4.571,-8.594 -1.961,-1.918 -4.219,-3.14 -6.804,-3.695 -2.59,-0.555 -5.422,-0.574 -8.528,-0.094 -3.105,0.504 -6.367,1.243 -9.773,2.231 -3.145,0.91 -6.114,2.023 -8.926,3.34 -2.824,1.304 -5.195,2.922 -7.148,4.824 -1.946,1.922 -3.313,4.164 -4.094,6.73 -0.77,2.578 -0.684,5.547 0.293,8.903 l 3.996,13.836 49.383,-14.266" style="fill: #231f20; fill-opacity: 1; fill-rule: nonzero; stroke: none" /><path id="path66" d="m 351.785,428.488 2.594,-3.457 c 1.492,-2 3.109,-3.183 4.855,-3.554 1.743,-0.379 3.735,0.273 5.961,1.933 3.805,2.852 4.27,6.192 1.399,10.031 l -2.93,3.926 z m 11.781,21.754 11.465,-15.336 c 2.586,-3.457 3.723,-6.808 3.414,-10.039 -0.312,-3.222 -2.254,-6.172 -5.832,-8.847 -2.769,-2.071 -5.441,-3.204 -8.023,-3.391 -2.582,-0.195 -4.992,0.695 -7.25,2.668 l -0.117,-0.09 c 0.875,-1.562 1.363,-2.969 1.476,-4.199 0.117,-1.231 -0.148,-2.442 -0.777,-3.641 -0.641,-1.191 -1.641,-2.441 -3.008,-3.73 -1.367,-1.289 -3.137,-2.785 -5.297,-4.465 -2.164,-1.668 -3.742,-3.047 -4.738,-4.109 -0.996,-1.086 -1.414,-2.161 -1.266,-3.243 l -0.343,-0.265 -6.805,9.101 1.379,2.297 2.164,1.981 7.726,6.132 c 1.555,1.282 2.528,2.637 2.907,4.043 0.386,1.418 -0.063,2.981 -1.344,4.68 l -3.274,4.395 -17.41,-13.028 -6.211,8.301 41.164,30.785" style="fill: #231f20; fill-opacity: 1; fill-rule: nonzero; stroke: none" /><path id="path68" d="m 416.848,391.508 -5.707,-6.301 -13.606,12.324 -8.113,-8.953 12.797,-11.601 -5.703,-6.289 -12.801,11.589 -9.281,-10.242 14.132,-12.805 -5.703,-6.289 -21.816,19.758 34.516,38.094 21.285,-19.285" style="fill: #231f20; fill-opacity: 1; fill-rule: nonzero; stroke: none" /><path id="path70" d="m 441.902,356.496 c 0.469,0.781 0.879,1.672 1.231,2.668 0.344,0.984 0.527,1.973 0.555,2.938 0.019,0.957 -0.145,1.875 -0.493,2.726 l -1.886,2.11 c -2.137,1.296 -4.399,1.023 -6.782,-0.782 -2.382,-1.816 -5.234,-5.468 -8.554,-10.976 -1.61,-2.668 -2.977,-5.117 -4.086,-7.325 -1.114,-2.218 -1.91,-4.21 -2.379,-5.968 -0.477,-1.758 -0.555,-3.282 -0.235,-4.559 0.313,-1.301 1.114,-2.316 2.387,-3.086 l 2.012,-0.637 c 0.812,-0.085 1.668,-0.019 2.57,0.215 0.903,0.246 1.801,0.696 2.711,1.36 0.902,0.652 1.715,1.59 2.43,2.773 l 2.715,4.512 -5.856,3.523 3.946,6.535 14.359,-8.664 -14.32,-23.73 -6.532,3.937 2.457,4.071 -0.129,0.078 c -2.109,-1.082 -4.148,-1.563 -6.121,-1.434 -1.968,0.125 -4.004,0.821 -6.101,2.078 -2.707,1.633 -4.613,3.477 -5.707,5.52 -1.102,2.031 -1.539,4.316 -1.313,6.875 0.227,2.547 1.043,5.379 2.473,8.476 1.414,3.094 3.273,6.551 5.586,10.372 2.23,3.699 4.426,6.804 6.586,9.304 2.156,2.512 4.375,4.356 6.652,5.528 2.281,1.183 4.649,1.66 7.106,1.476 2.461,-0.195 5.113,-1.152 7.945,-2.863 4.848,-2.93 7.613,-6.238 8.301,-9.93 0.683,-3.691 -0.325,-7.773 -3.028,-12.258 l -8.5,5.137" style="fill: #231f20; fill-opacity: 1; fill-rule: nonzero; stroke: none" /><path id="path72" d="m 456.805,309.008 18.996,47.742 9.637,-3.828 -19.004,-47.754 -9.629,3.84" style="fill: #231f20; fill-opacity: 1; fill-rule: nonzero; stroke: none" /><path id="path74" d="m 503.848,310.227 -0.325,-1.465 c -0.261,-1.172 -0.406,-2.266 -0.429,-3.262 -0.028,-1.004 0.144,-1.895 0.511,-2.656 l 1.696,-2 c 0.762,-0.567 1.816,-0.996 3.176,-1.301 1.543,-0.34 3.046,-0.156 4.511,0.586 1.473,0.723 2.434,2.141 2.907,4.25 0.25,1.121 0.312,2.137 0.191,3.016 l -1.016,2.558 c -0.558,0.813 -1.347,1.613 -2.375,2.402 -1.035,0.801 -2.328,1.661 -3.886,2.61 -2.082,1.25 -3.84,2.488 -5.282,3.75 -1.445,1.258 -2.578,2.598 -3.414,4.043 -0.836,1.433 -1.336,2.996 -1.504,4.687 -0.164,1.68 -0.019,3.555 0.442,5.614 1.105,4.961 3.308,8.359 6.617,10.175 3.309,1.829 7.371,2.2 12.195,1.125 2.25,-0.5 4.27,-1.211 6.055,-2.129 1.793,-0.91 3.246,-2.07 4.391,-3.476 1.132,-1.406 1.894,-3.059 2.289,-4.941 0.39,-1.875 0.324,-4.016 -0.211,-6.407 l -0.313,-1.406 -9.695,2.168 c 0.531,2.383 0.516,4.316 -0.035,5.789 -0.563,1.477 -1.821,2.434 -3.785,2.871 -1.129,0.254 -2.098,0.305 -2.918,0.137 l -2.086,-0.906 -1.328,-1.653 -0.735,-2.129 c -0.336,-1.543 -0.301,-2.91 0.117,-4.109 0.426,-1.211 1.614,-2.492 3.571,-3.859 l 7.047,-5.118 c 1.683,-1.25 3.05,-2.48 4.086,-3.66 1.035,-1.203 1.8,-2.402 2.289,-3.613 0.496,-1.223 0.738,-2.48 0.738,-3.809 0,-1.328 -0.168,-2.765 -0.512,-4.316 -1.183,-5.293 -3.586,-8.848 -7.203,-10.637 -3.621,-1.804 -8.172,-2.09 -13.652,-0.879 -5.715,1.282 -9.516,3.469 -11.407,6.563 -1.894,3.105 -2.32,6.973 -1.289,11.613 l 0.453,2.039 10.118,-2.265" style="fill: #231f20; fill-opacity: 1; fill-rule: nonzero; stroke: none" /><path id="path76" d="m 581.105,336.957 -0.257,-8.488 -11.223,0.344 -1.289,-42.883 -10.359,0.304 1.289,42.891 -11.227,0.332 0.258,8.484 32.808,-0.984" style="fill: #231f20; fill-opacity: 1; fill-rule: nonzero; stroke: none" /><path id="path78" d="m 625.016,342.473 1.281,-8.387 -18.137,-2.773 1.817,-11.954 17.082,2.618 1.289,-8.411 -17.082,-2.605 2.089,-13.664 18.86,2.883 1.277,-8.399 -29.101,-4.445 -7.762,50.801 28.387,4.336" style="fill: #231f20; fill-opacity: 1; fill-rule: nonzero; stroke: none" /><path id="path80" d="m 658.531,328.832 4.063,1.473 c 2.344,0.851 3.957,2.05 4.824,3.613 0.859,1.562 0.82,3.652 -0.125,6.27 -1.613,4.472 -4.68,5.89 -9.191,4.257 l -4.61,-1.66 z m -17.371,17.617 18.008,6.492 c 4.062,1.465 7.598,1.582 10.594,0.344 3,-1.242 5.254,-3.965 6.769,-8.156 1.172,-3.242 1.473,-6.133 0.907,-8.66 -0.567,-2.531 -2.129,-4.582 -4.668,-6.164 l 0.058,-0.137 c 1.75,0.383 3.235,0.441 4.445,0.195 1.211,-0.254 2.293,-0.859 3.25,-1.816 0.957,-0.945 1.868,-2.266 2.696,-3.953 0.832,-1.692 1.738,-3.821 2.715,-6.379 0.976,-2.559 1.836,-4.453 2.57,-5.723 0.742,-1.269 1.641,-1.98 2.734,-2.156 l 0.137,-0.41 -10.676,-3.848 -1.804,1.981 c -0.461,0.839 -0.872,1.718 -1.262,2.648 l -3.621,9.18 c -0.774,1.855 -1.778,3.183 -3.02,3.965 -1.23,0.769 -2.859,0.8 -4.863,0.078 l -5.145,-1.856 7.371,-20.461 -9.746,-3.515 -17.449,48.351" style="fill: #231f20; fill-opacity: 1; fill-rule: nonzero; stroke: none" /><path id="path82" d="m 712.887,380.414 4.386,-7.277 -15.734,-9.473 6.231,-10.359 14.804,8.906 4.375,-7.277 -14.804,-8.907 7.128,-11.843 16.348,9.832 4.375,-7.274 -25.234,-15.176 -26.492,44.032 24.617,14.816" style="fill: #231f20; fill-opacity: 1; fill-rule: nonzero; stroke: none" /><path id="path84" d="m 763.727,364.992 3.41,3.098 c 1.316,1.191 2.187,2.39 2.605,3.613 0.41,1.219 0.371,2.586 -0.105,4.09 -0.489,1.496 -1.438,3.195 -2.852,5.09 -1.437,1.883 -3.32,4.121 -5.664,6.719 -1.973,2.168 -3.75,3.992 -5.363,5.476 -1.61,1.496 -3.133,2.59 -4.578,3.293 -1.438,0.692 -2.852,0.926 -4.219,0.692 -1.379,-0.243 -2.785,-1.016 -4.25,-2.344 l -3.25,-2.949 z m -37.071,25.469 12.59,11.406 c 2.664,2.422 5.215,3.938 7.637,4.551 2.422,0.605 4.824,0.508 7.195,-0.281 2.375,-0.793 4.746,-2.188 7.141,-4.172 2.371,-1.992 4.844,-4.383 7.383,-7.195 3.066,-3.372 5.496,-6.477 7.312,-9.297 1.828,-2.825 2.949,-5.489 3.41,-8 0.449,-2.489 0.196,-4.903 -0.761,-7.196 -0.958,-2.297 -2.727,-4.601 -5.286,-6.925 l -12.109,-10.965 -34.512,38.074" style="fill: #231f20; fill-opacity: 1; fill-rule: nonzero; stroke: none" /></g></g><text x="130" y="71" style="font-family: Arial Narrow; font-size: 10">BAS agent</text><text x="130" y="86" style="font-family: Arial Narrow; font-size: 10">95866015</text></svg>