<?xml version="1.0" encoding="utf-8"?><svg width="502" height="642" viewBox="0 0 502 642" id="svg2" version="1.1" xml:space="preserve" xmlns="http://www.w3.org/2000/svg" xmlns:xlink="http://www.w3.org/1999/xlink" xmlns:xml="http://www.w3.org/XML/1998/namespace" xmlns:rdf="http://www.w3.org/1999/02/22-rdf-syntax-ns#" xmlns:cc="http://creativecommons.org/ns#" xmlns:dc="http://purl.org/dc/elements/1.1/"><metadata id="metadata8"></metadata><defs id="defs6"></defs><g transform="matrix(1.3333333,0,0,-1.3333333,0,205.62667)" id="g10"><g transform="scale(0.1)" id="g12"><path id="path14" d="M 0,0 H 1216.19 V 1542.2 H 0 Z" style="fill: #ffffff; fill-opacity: 1; fill-rule: nonzero; stroke: none" /><path id="path16" d="m 838.594,935.512 c 0,-127.305 -103.203,-230.508 -230.492,-230.508 -127.309,0 -230.524,103.203 -230.524,230.508 0,127.318 103.215,230.488 230.524,230.488 127.289,0 230.492,-103.17 230.492,-230.488" style="fill: #b2db18; fill-opacity: 1; fill-rule: nonzero; stroke: none" /><path id="path18" d="m 426.762,905.883 c 70.636,-40.352 93.914,-109.317 93.914,-109.317 64.539,80.762 192.703,160.981 283.035,178.079 -83.106,18.925 -197.652,-31.399 -268.324,-99.133 0,0 -55.285,38.34 -108.625,30.371" style="fill: #231f20; fill-opacity: 1; fill-rule: nonzero; stroke: none" /><path id="path20" d="m 412.461,928.816 c 0,0 96.477,188.824 391.25,65.055 0,0 -140.684,35.459 -268.375,-90.547 0,0 -43.914,39.793 -122.875,25.492" style="fill: #ffffff; fill-opacity: 1; fill-rule: nonzero; stroke: none" /><path id="path22" d="m 976.594,935.512 h -2 C 974.59,834.309 933.57,742.695 867.246,676.367 800.914,610.039 709.305,569.016 608.102,569.016 c -101.219,0 -192.836,41.023 -259.168,107.351 -66.329,66.328 -107.348,157.942 -107.348,259.145 0,101.218 41.019,192.828 107.348,259.148 66.332,66.32 157.949,107.34 259.168,107.34 101.203,0 192.812,-41.02 259.144,-107.34 66.324,-66.32 107.344,-157.93 107.348,-259.148 h 2 2 C 978.59,1140.14 812.707,1306 608.102,1306 403.465,1306 237.586,1140.14 237.586,935.512 c 0,-204.602 165.879,-370.496 370.516,-370.496 204.605,0 370.488,165.894 370.492,370.496 h -2" style="fill: #231f20; fill-opacity: 1; fill-rule: nonzero; stroke: none" /><path id="path24" d="m 346.949,863.402 1.961,-6.777 -47.847,-13.867 3.902,-13.477 -5.867,-1.699 -9.789,33.789 5.867,1.699 3.926,-13.547 47.847,13.879" style="fill: #231f20; fill-opacity: 1; fill-rule: nonzero; stroke: none" /><path id="path26" d="m 319.293,892.727 -1.828,15.109 -25.961,-10.402 0.019,-0.164 z m -35.098,-0.75 -1.109,9.179 53.723,21.625 0.843,-6.996 -14.757,-5.859 2.168,-17.942 15.742,-2.332 0.843,-6.992 -57.453,9.317" style="fill: #231f20; fill-opacity: 1; fill-rule: nonzero; stroke: none" /><path id="path28" d="m 280.875,936.809 0.438,7.668 21.46,8.972 -20.289,11.594 0.403,7.035 26.652,-15.484 29.234,13.242 -0.433,-7.664 -22.996,-9.828 21.707,-12.778 -0.403,-7.035 -27.539,16.477 -28.234,-12.199" style="fill: #231f20; fill-opacity: 1; fill-rule: nonzero; stroke: none" /><path id="path30" d="m 323.035,1029.95 2.778,7.73 c 0.843,2.37 0.742,4.71 -0.321,7.02 -1.051,2.32 -3.324,4.1 -6.816,5.35 -2.949,1.07 -5.528,1.18 -7.735,0.37 -2.207,-0.82 -3.89,-2.85 -5.05,-6.1 l -2.621,-7.3 z m -27.449,2.34 4.809,13.42 c 0.265,0.74 0.621,1.65 1.066,2.74 0.441,1.09 1.019,2.18 1.719,3.29 0.703,1.11 1.578,2.15 2.621,3.14 1.051,0.98 2.308,1.75 3.785,2.3 1.473,0.56 3.172,0.82 5.105,0.8 1.934,-0.03 4.153,-0.49 6.661,-1.39 2.457,-0.88 4.503,-2.03 6.128,-3.44 1.629,-1.41 2.856,-3.02 3.676,-4.83 0.824,-1.81 1.239,-3.76 1.231,-5.86 0,-2.09 -0.395,-4.23 -1.18,-6.43 l -2.863,-7.99 22.269,-7.98 -2.375,-6.63 -52.652,18.86" style="fill: #231f20; fill-opacity: 1; fill-rule: nonzero; stroke: none" /><path id="path32" d="m 342.953,1079.18 3.43,5.89 c 0.496,0.86 1.035,1.89 1.609,3.1 0.582,1.2 0.879,2.49 0.895,3.87 0.019,1.38 -0.403,2.79 -1.258,4.22 -0.859,1.44 -2.461,2.83 -4.813,4.2 -2.433,1.42 -4.765,1.77 -6.988,1.07 -2.219,-0.7 -4.152,-2.48 -5.808,-5.32 l -4.129,-7.11 z m -25.48,6.66 9.09,15.64 c 2.226,3.84 5.046,6.25 8.457,7.23 3.41,0.97 7.031,0.35 10.863,-1.87 1.312,-0.77 2.551,-1.65 3.719,-2.66 1.164,-1.01 2.132,-2.13 2.898,-3.35 0.766,-1.23 1.293,-2.56 1.582,-3.98 0.289,-1.43 0.188,-2.93 -0.309,-4.51 l 0.137,-0.08 c 1.449,1.98 3.278,3.1 5.477,3.35 2.199,0.25 4.379,-0.16 6.531,-1.23 l 8.496,-4.4 c 1.383,-0.74 2.543,-1.29 3.477,-1.66 0.937,-0.36 1.754,-0.59 2.453,-0.69 l 1.769,0.01 1.383,0.51 -4.109,-7.08 -1.61,0.05 -2.062,0.57 -2.203,0.88 -2.028,0.96 -7.754,3.96 c -1.75,0.84 -3.222,1.29 -4.421,1.35 -1.204,0.06 -2.239,-0.1 -3.11,-0.5 l -2.156,-1.69 -1.527,-2.24 -4.684,-8.06 21.539,-12.51 -3.547,-6.1 -48.351,28.1" style="fill: #231f20; fill-opacity: 1; fill-rule: nonzero; stroke: none" /><path id="path34" d="m 381.813,1119.95 9.921,11.54 -25.195,12.15 -0.109,-0.13 z m -24.239,25.4 6.024,7.01 52.218,-25.06 -4.601,-5.34 -14.277,6.93 -11.782,-13.7 8.907,-13.19 -4.598,-5.35 -31.891,48.7" style="fill: #231f20; fill-opacity: 1; fill-rule: nonzero; stroke: none" /><path id="path36" d="m 440.668,1173.06 c 1.551,-2.17 2.828,-4.41 3.844,-6.71 1.015,-2.3 1.601,-4.59 1.761,-6.87 0.168,-2.28 -0.222,-4.53 -1.168,-6.73 -0.945,-2.2 -2.593,-4.25 -4.953,-6.15 -3.089,-2.49 -6.093,-3.82 -9.007,-3.99 -2.918,-0.16 -5.731,0.44 -8.442,1.81 -2.715,1.37 -5.301,3.27 -7.765,5.71 -2.465,2.44 -4.817,5.04 -7.043,7.8 -2.192,2.73 -4.219,5.57 -6.071,8.54 -1.851,2.97 -3.136,5.94 -3.855,8.91 -0.723,2.98 -0.699,5.86 0.066,8.66 0.77,2.8 2.653,5.4 5.664,7.83 4.438,3.57 8.606,4.98 12.524,4.25 3.91,-0.74 7.664,-3.22 11.257,-7.43 l -5.492,-4.42 c -1.027,1.19 -2.109,2.24 -3.258,3.16 -1.148,0.92 -2.339,1.57 -3.57,1.95 -1.222,0.39 -2.504,0.45 -3.82,0.19 -1.324,-0.26 -2.692,-0.96 -4.094,-2.09 -1.898,-1.53 -3.023,-3.22 -3.367,-5.07 -0.348,-1.86 -0.156,-3.85 0.57,-5.98 0.727,-2.13 1.895,-4.38 3.489,-6.75 1.605,-2.36 3.414,-4.8 5.445,-7.32 2.031,-2.53 4.035,-4.82 6.004,-6.89 1.968,-2.06 3.918,-3.68 5.843,-4.85 1.926,-1.16 3.833,-1.77 5.715,-1.83 1.887,-0.06 3.778,0.68 5.676,2.21 1.649,1.33 2.695,2.74 3.129,4.23 0.438,1.49 0.488,3 0.16,4.55 -0.324,1.54 -0.933,3.07 -1.836,4.56 -0.89,1.49 -1.859,2.92 -2.898,4.3 l 5.492,4.42" style="fill: #231f20; fill-opacity: 1; fill-rule: nonzero; stroke: none" /><path id="path38" d="m 481.758,1175.15 -6.188,-3.37 -23.847,43.74 -12.309,-6.72 -2.926,5.37 30.879,16.84 2.926,-5.37 -12.379,-6.75 23.844,-43.74" style="fill: #231f20; fill-opacity: 1; fill-rule: nonzero; stroke: none" /><path id="path40" d="m 489.004,1239.88 6.594,2.5 19.828,-52.29 -6.594,-2.5 -19.828,52.29" style="fill: #231f20; fill-opacity: 1; fill-rule: nonzero; stroke: none" /><path id="path42" d="m 550.602,1200.23 -6.872,-1.59 -11.167,48.56 -13.661,-3.15 -1.375,5.96 34.282,7.88 1.367,-5.95 -13.742,-3.16 11.168,-48.55" style="fill: #231f20; fill-opacity: 1; fill-rule: nonzero; stroke: none" /><path id="path44" d="m 574.922,1260.6 7.016,0.63 5.039,-55.69 -7.02,-0.64 -5.035,55.7" style="fill: #231f20; fill-opacity: 1; fill-rule: nonzero; stroke: none" /><path id="path46" d="m 626.672,1257.17 c -2.434,0.14 -4.406,-0.36 -5.891,-1.5 -1.5,-1.15 -2.691,-2.75 -3.578,-4.82 -0.89,-2.07 -1.535,-4.52 -1.926,-7.35 -0.41,-2.82 -0.703,-5.85 -0.882,-9.08 -0.184,-3.24 -0.239,-6.28 -0.161,-9.13 0.075,-2.86 0.438,-5.36 1.082,-7.52 0.645,-2.16 1.641,-3.89 3.008,-5.2 1.36,-1.3 3.246,-2.02 5.68,-2.16 2.441,-0.14 4.394,0.36 5.898,1.51 1.493,1.14 2.688,2.75 3.575,4.81 0.886,2.07 1.535,4.52 1.933,7.34 0.403,2.83 0.695,5.86 0.879,9.1 0.176,3.23 0.234,6.27 0.156,9.13 -0.078,2.85 -0.437,5.36 -1.086,7.51 -0.64,2.15 -1.648,3.89 -3.004,5.19 -1.359,1.31 -3.253,2.04 -5.683,2.17 z m 0.32,5.63 c 3.86,-0.21 6.914,-1.24 9.16,-3.07 2.246,-1.83 3.946,-4.16 5.086,-7 1.157,-2.84 1.836,-6 2.055,-9.49 0.223,-3.49 0.23,-6.98 0.027,-10.47 -0.195,-3.55 -0.605,-7.03 -1.218,-10.45 -0.618,-3.42 -1.653,-6.47 -3.118,-9.16 -1.457,-2.69 -3.41,-4.81 -5.847,-6.37 -2.446,-1.56 -5.598,-2.23 -9.446,-2.01 -3.863,0.22 -6.91,1.24 -9.164,3.07 -2.246,1.83 -3.945,4.16 -5.093,7 -1.141,2.83 -1.829,5.99 -2.047,9.45 -0.223,3.47 -0.235,6.97 -0.028,10.52 0.2,3.49 0.606,6.95 1.219,10.4 0.617,3.44 1.652,6.51 3.11,9.2 1.46,2.69 3.414,4.81 5.855,6.37 2.441,1.56 5.594,2.23 9.449,2.01" style="fill: #231f20; fill-opacity: 1; fill-rule: nonzero; stroke: none" /><path id="path48" d="m 673.496,1256.15 6.594,-1.71 2.051,-0.53 6.199,-49.82 0.144,-0.04 11.704,45.19 6.667,-1.73 -14.011,-54.14 -6.594,1.71 -2.578,0.67 -6.027,48.32 -0.145,0.04 -11.348,-43.83 -6.672,1.73 14.016,54.14" style="fill: #231f20; fill-opacity: 1; fill-rule: nonzero; stroke: none" /><path id="path50" d="m 734.551,1237.17 26.164,-12.29 -2.602,-5.53 -19.773,9.29 -7.461,-15.88 18.641,-8.76 -2.594,-5.53 -18.645,8.75 -8.523,-18.15 20.633,-9.68 -2.598,-5.53 -27.012,12.68 23.77,50.63" style="fill: #231f20; fill-opacity: 1; fill-rule: nonzero; stroke: none" /><path id="path52" d="m 775.43,1186.32 5.554,-3.95 c 0.801,-0.57 1.782,-1.21 2.934,-1.89 1.141,-0.69 2.398,-1.1 3.777,-1.25 1.368,-0.14 2.801,0.15 4.317,0.88 1.504,0.72 3.047,2.18 4.621,4.39 1.629,2.3 2.207,4.59 1.707,6.86 -0.496,2.28 -2.09,4.37 -4.766,6.28 l -6.711,4.77 z m 8.965,24.77 14.746,-10.49 c 3.613,-2.57 5.754,-5.6 6.418,-9.08 0.664,-3.48 -0.293,-7.04 -2.864,-10.65 -0.879,-1.24 -1.875,-2.39 -2.976,-3.46 -1.114,-1.06 -2.317,-1.93 -3.606,-2.58 -1.3,-0.65 -2.668,-1.05 -4.109,-1.21 -1.445,-0.16 -2.941,0.08 -4.453,0.72 l -0.102,-0.13 c 1.836,-1.62 2.785,-3.54 2.832,-5.76 0.051,-2.21 -0.554,-4.34 -1.824,-6.39 l -5.156,-8.06 c -0.867,-1.3 -1.524,-2.41 -1.973,-3.31 l -0.918,-2.37 -0.144,-1.77 0.379,-1.42 -6.668,4.74 0.183,1.6 0.774,2 1.074,2.12 1.14,1.92 4.661,7.36 c 0.984,1.67 1.57,3.1 1.746,4.28 0.168,1.19 0.097,2.24 -0.227,3.14 l -1.48,2.31 -2.09,1.72 -7.602,5.4 -14.429,-20.29 -5.747,4.08 32.415,45.58" style="fill: #231f20; fill-opacity: 1; fill-rule: nonzero; stroke: none" /><path id="path54" d="m 838.406,1146.51 c 1.059,1.01 1.926,2.05 2.602,3.11 0.68,1.06 1.101,2.14 1.25,3.22 0.144,1.09 0.008,2.21 -0.422,3.36 -0.418,1.15 -1.199,2.31 -2.324,3.47 -2.071,2.14 -4.207,3.25 -6.426,3.32 -2.219,0.07 -4.395,-0.93 -6.531,-3 -1.875,-1.81 -2.864,-3.68 -2.961,-5.6 -0.098,-1.93 0.234,-3.89 1.008,-5.89 0.757,-1.99 1.707,-4.04 2.832,-6.13 1.113,-2.1 1.968,-4.24 2.546,-6.42 0.586,-2.17 0.633,-4.41 0.165,-6.69 -0.477,-2.29 -1.93,-4.62 -4.375,-6.98 -2.325,-2.25 -4.625,-3.73 -6.915,-4.45 -2.285,-0.72 -4.453,-0.92 -6.519,-0.59 -2.063,0.33 -3.996,1.05 -5.805,2.18 -1.812,1.12 -3.406,2.38 -4.785,3.81 -2.293,2.37 -3.887,4.62 -4.793,6.76 -0.906,2.13 -1.238,4.21 -1.008,6.22 0.239,2 0.996,4.01 2.285,6.02 1.29,2.02 3.008,4.06 5.149,6.12 l 4.902,-5.06 c -1.125,-1.09 -2.187,-2.23 -3.183,-3.41 -1.004,-1.18 -1.719,-2.45 -2.149,-3.82 -0.429,-1.36 -0.422,-2.81 0.02,-4.34 0.429,-1.54 1.523,-3.22 3.261,-5.02 0.95,-0.97 2,-1.73 3.184,-2.26 1.172,-0.54 2.363,-0.82 3.582,-0.84 1.223,-0.02 2.434,0.21 3.645,0.69 1.203,0.48 2.351,1.25 3.437,2.3 1.426,1.38 2.324,2.78 2.695,4.2 0.372,1.41 0.442,2.87 0.207,4.35 -0.246,1.49 -0.722,3 -1.449,4.53 -0.718,1.53 -1.441,3.1 -2.183,4.68 -0.735,1.59 -1.41,3.2 -2.012,4.85 -0.617,1.64 -0.949,3.29 -0.996,4.96 -0.051,1.67 0.281,3.38 0.984,5.13 0.711,1.74 1.985,3.5 3.828,5.28 0.938,0.91 2.161,1.84 3.672,2.79 1.504,0.96 3.25,1.57 5.235,1.86 1.984,0.28 4.121,0.04 6.418,-0.72 2.293,-0.76 4.675,-2.41 7.144,-4.96 3.742,-3.87 5.539,-7.59 5.41,-11.17 -0.136,-3.58 -2.039,-7.23 -5.718,-10.93 l -4.907,5.07" style="fill: #231f20; fill-opacity: 1; fill-rule: nonzero; stroke: none" /><path id="path56" d="m 873.145,1081.88 3.625,-7.03 1.445,-2.3 c 0.633,-0.87 1.453,-1.62 2.476,-2.24 1.028,-0.62 2.258,-0.95 3.696,-1.01 1.433,-0.04 3.101,0.42 5.008,1.4 2.648,1.36 4.328,3.07 5.039,5.11 0.703,2.04 0.273,4.59 -1.309,7.65 l -3.555,6.9 z m -23.25,-11.99 4.304,-8.36 c 0.84,-1.62 1.797,-2.86 2.879,-3.71 1.098,-0.85 2.231,-1.39 3.41,-1.64 1.184,-0.24 2.403,-0.23 3.672,0.05 1.27,0.27 2.512,0.72 3.723,1.34 1.707,0.88 3.035,1.89 3.953,3.01 0.918,1.12 1.531,2.32 1.848,3.6 0.308,1.28 0.332,2.59 0.066,3.96 -0.266,1.36 -0.742,2.71 -1.437,4.06 l -3.766,7.31 z m 41.453,29.32 7.863,-15.25 c 0.84,-1.62 1.441,-3.31 1.812,-5.06 0.372,-1.74 0.372,-3.46 -0.015,-5.16 -0.395,-1.7 -1.211,-3.33 -2.461,-4.88 -1.25,-1.56 -3.086,-2.97 -5.5,-4.21 -1.113,-0.58 -2.317,-0.99 -3.594,-1.24 -1.277,-0.25 -2.539,-0.31 -3.789,-0.16 -1.25,0.14 -2.449,0.48 -3.613,1.02 -1.16,0.54 -2.188,1.28 -3.086,2.22 l -0.137,-0.08 c 0.828,-3.43 0.52,-6.4 -0.937,-8.94 -1.453,-2.52 -3.719,-4.59 -6.778,-6.17 -5.058,-2.6 -9.402,-3.1 -13.039,-1.47 -3.621,1.62 -6.773,5.03 -9.461,10.22 l -6.965,13.51 49.7,25.65" style="fill: #231f20; fill-opacity: 1; fill-rule: nonzero; stroke: none" /><path id="path58" d="m 917.48,1025.6 c -0.671,2.34 -1.804,4.03 -3.386,5.06 -1.574,1.03 -3.489,1.62 -5.735,1.77 -2.246,0.14 -4.765,-0.06 -7.566,-0.63 -2.797,-0.57 -5.754,-1.3 -8.859,-2.2 -3.118,-0.91 -5.996,-1.87 -8.664,-2.89 -2.665,-1.03 -4.911,-2.2 -6.727,-3.53 -1.816,-1.33 -3.113,-2.85 -3.887,-4.57 -0.781,-1.71 -0.832,-3.74 -0.156,-6.08 0.684,-2.34 1.816,-4.03 3.391,-5.06 1.582,-1.03 3.484,-1.62 5.73,-1.76 2.246,-0.16 4.766,0.06 7.567,0.62 2.804,0.57 5.753,1.3 8.871,2.2 3.101,0.91 5.996,1.87 8.66,2.9 2.668,1.02 4.902,2.2 6.719,3.52 1.816,1.33 3.117,2.85 3.898,4.57 0.777,1.71 0.828,3.74 0.144,6.08 z m 5.418,1.58 c 1.079,-3.72 1.125,-6.93 0.161,-9.67 -0.981,-2.73 -2.61,-5.1 -4.907,-7.13 -2.293,-2.02 -5.047,-3.72 -8.269,-5.09 -3.211,-1.38 -6.504,-2.55 -9.863,-3.52 -3.411,-1 -6.829,-1.774 -10.254,-2.332 -3.426,-0.559 -6.653,-0.602 -9.668,-0.118 -3.028,0.477 -5.684,1.61 -7.969,3.39 -2.274,1.79 -3.965,4.53 -5.039,8.24 -1.082,3.71 -1.133,6.93 -0.156,9.67 0.964,2.73 2.609,5.11 4.902,7.13 2.285,2.03 5.027,3.72 8.223,5.09 3.195,1.36 6.496,2.54 9.902,3.52 3.359,0.98 6.769,1.75 10.227,2.32 3.445,0.57 6.675,0.62 9.707,0.13 3.015,-0.48 5.671,-1.61 7.957,-3.39 2.285,-1.78 3.964,-4.53 5.046,-8.24" style="fill: #231f20; fill-opacity: 1; fill-rule: nonzero; stroke: none" /><path id="path60" d="m 897.883,970.523 1.426,-15.156 26.226,9.703 -0.015,0.157 z m 35.105,-0.187 0.86,-9.203 -54.278,-20.188 -0.652,7.024 14.898,5.453 -1.675,17.996 -15.676,2.75 -0.664,7.02 57.187,-10.852" style="fill: #231f20; fill-opacity: 1; fill-rule: nonzero; stroke: none" /><path id="path62" d="m 909.004,917.238 -0.606,-6.785 c -0.085,-0.996 -0.136,-2.148 -0.144,-3.488 -0.024,-1.336 0.262,-2.625 0.828,-3.895 0.566,-1.25 1.555,-2.343 2.93,-3.281 1.386,-0.937 3.437,-1.523 6.14,-1.758 2.805,-0.254 5.071,0.41 6.782,1.992 1.714,1.571 2.711,4.004 3.004,7.274 l 0.722,8.195 z m 25.906,4.778 -1.597,-18.028 c -0.403,-4.414 -1.926,-7.793 -4.602,-10.129 -2.676,-2.332 -6.223,-3.3 -10.637,-2.898 -1.511,0.125 -3.008,0.41 -4.488,0.82 -1.484,0.418 -2.832,1.016 -4.043,1.805 -1.223,0.793 -2.258,1.769 -3.125,2.941 -0.871,1.172 -1.406,2.567 -1.633,4.2 l -0.156,0.019 c -0.481,-2.402 -1.66,-4.191 -3.543,-5.351 -1.887,-1.165 -4.023,-1.719 -6.438,-1.661 l -9.558,0.391 c -1.567,0.078 -2.856,0.098 -3.852,0.02 -1.004,-0.059 -1.836,-0.196 -2.508,-0.411 l -1.601,-0.761 -1.043,-1.035 0.73,8.144 1.465,0.645 2.117,0.351 2.375,0.137 2.239,-0.012 8.699,-0.301 c 1.941,-0.019 3.469,0.203 4.582,0.653 1.109,0.461 1.98,1.047 2.598,1.777 l 1.238,2.453 0.43,2.664 0.832,9.289 -24.817,2.207 0.625,7.016 55.711,-4.945" style="fill: #231f20; fill-opacity: 1; fill-rule: nonzero; stroke: none" /><path id="path64" d="m 876.301,867.719 -1.992,-6.926 c -0.832,-2.859 -0.825,-5.32 0.015,-7.391 0.852,-2.05 2.168,-3.828 3.977,-5.293 1.797,-1.484 3.933,-2.707 6.394,-3.691 2.461,-0.977 4.895,-1.816 7.309,-2.52 2.605,-0.753 5.215,-1.398 7.832,-1.933 2.613,-0.547 5.059,-0.684 7.332,-0.449 2.266,0.234 4.285,1.035 6.062,2.363 1.77,1.336 3.098,3.516 3.965,6.523 l 2.004,6.914 z m 50.269,-7.188 -4.16,-14.375 c -1.199,-4.16 -2.859,-7.285 -4.976,-9.355 -2.129,-2.09 -4.59,-3.418 -7.407,-4.024 -2.808,-0.605 -5.894,-0.625 -9.273,-0.097 -3.383,0.547 -6.926,1.347 -10.637,2.422 -3.418,0.996 -6.648,2.207 -9.719,3.632 -3.062,1.426 -5.652,3.184 -7.769,5.254 -2.121,2.09 -3.606,4.532 -4.453,7.325 -0.84,2.8 -0.742,6.035 0.32,9.687 l 4.348,15.059 53.726,-15.528" style="fill: #231f20; fill-opacity: 1; fill-rule: nonzero; stroke: none" /><path id="path66" d="m 368.09,764.574 2.816,-3.761 c 1.629,-2.176 3.391,-3.465 5.289,-3.868 1.903,-0.41 4.063,0.293 6.493,2.11 4.136,3.097 4.64,6.73 1.515,10.91 l -3.187,4.277 z m 12.816,23.672 12.477,-16.691 c 2.816,-3.758 4.055,-7.403 3.719,-10.918 -0.344,-3.504 -2.454,-6.719 -6.344,-9.629 -3.016,-2.254 -5.922,-3.485 -8.731,-3.692 -2.812,-0.214 -5.441,0.754 -7.89,2.903 l -0.129,-0.098 c 0.949,-1.699 1.484,-3.223 1.605,-4.57 0.125,-1.34 -0.16,-2.656 -0.847,-3.957 -0.696,-1.297 -1.782,-2.656 -3.274,-4.063 -1.488,-1.406 -3.41,-3.027 -5.765,-4.851 -2.352,-1.817 -4.067,-3.321 -5.153,-4.485 -1.082,-1.172 -1.543,-2.343 -1.375,-3.523 l -0.375,-0.285 -7.402,9.902 c 0.277,0.93 0.781,1.77 1.5,2.5 l 2.351,2.16 8.411,6.668 c 1.691,1.399 2.746,2.871 3.164,4.406 0.418,1.532 -0.071,3.231 -1.461,5.086 l -3.567,4.778 -18.945,-14.172 -6.758,9.035 44.789,33.496" style="fill: #231f20; fill-opacity: 1; fill-rule: nonzero; stroke: none" /><path id="path68" d="m 438.887,724.328 -6.211,-6.844 -14.801,13.407 -8.832,-9.746 13.926,-12.625 -6.207,-6.848 -13.93,12.617 -10.098,-11.141 15.379,-13.937 -6.203,-6.844 -23.742,21.504 37.559,41.445 23.16,-20.988" style="fill: #231f20; fill-opacity: 1; fill-rule: nonzero; stroke: none" /><path id="path70" d="m 466.152,686.234 c 0.512,0.848 0.957,1.817 1.336,2.899 0.379,1.074 0.578,2.148 0.61,3.203 0.023,1.047 -0.16,2.043 -0.539,2.969 -0.387,0.937 -1.071,1.699 -2.051,2.297 -2.324,1.406 -4.785,1.113 -7.379,-0.86 -2.594,-1.972 -5.695,-5.949 -9.313,-11.945 -1.75,-2.899 -3.234,-5.567 -4.445,-7.969 -1.211,-2.41 -2.074,-4.578 -2.59,-6.492 -0.515,-1.914 -0.597,-3.566 -0.254,-4.961 0.344,-1.406 1.211,-2.52 2.598,-3.359 l 2.191,-0.684 c 0.879,-0.098 1.813,-0.031 2.793,0.234 0.985,0.262 1.965,0.75 2.954,1.473 0.98,0.715 1.863,1.731 2.644,3.02 l 2.953,4.902 -6.371,3.848 4.293,7.097 15.625,-9.422 -15.582,-25.82 -7.109,4.285 2.672,4.426 -0.137,0.086 c -2.297,-1.18 -4.52,-1.699 -6.66,-1.563 -2.145,0.137 -4.356,0.891 -6.637,2.266 -2.949,1.777 -5.024,3.781 -6.215,5.996 -1.195,2.219 -1.672,4.707 -1.426,7.492 0.242,2.774 1.137,5.848 2.684,9.219 1.543,3.367 3.57,7.129 6.082,11.289 2.43,4.024 4.816,7.403 7.168,10.125 2.348,2.735 4.758,4.738 7.238,6.016 2.481,1.281 5.059,1.808 7.735,1.601 2.675,-0.214 5.562,-1.25 8.644,-3.113 5.277,-3.184 8.285,-6.789 9.031,-10.801 0.746,-4.023 -0.351,-8.468 -3.289,-13.34 l -9.254,5.586" style="fill: #231f20; fill-opacity: 1; fill-rule: nonzero; stroke: none" /><path id="path72" d="m 482.367,634.555 20.676,51.961 10.48,-4.168 -20.675,-51.965 -10.481,4.172" style="fill: #231f20; fill-opacity: 1; fill-rule: nonzero; stroke: none" /><path id="path74" d="m 533.563,635.891 -0.356,-1.602 c -0.281,-1.269 -0.441,-2.461 -0.469,-3.543 -0.027,-1.094 0.157,-2.062 0.559,-2.891 l 1.844,-2.179 c 0.828,-0.613 1.976,-1.082 3.457,-1.414 1.679,-0.371 3.316,-0.168 4.914,0.633 1.593,0.793 2.644,2.335 3.16,4.628 0.269,1.223 0.34,2.325 0.207,3.282 -0.133,0.968 -0.5,1.894 -1.109,2.785 -0.602,0.879 -1.461,1.758 -2.582,2.617 -1.122,0.867 -2.528,1.805 -4.227,2.832 -2.266,1.356 -4.18,2.715 -5.746,4.082 -1.574,1.367 -2.809,2.832 -3.719,4.402 -0.906,1.563 -1.453,3.262 -1.637,5.098 -0.179,1.828 -0.015,3.867 0.481,6.113 1.207,5.403 3.601,9.094 7.203,11.075 3.598,1.984 8.02,2.382 13.27,1.222 2.449,-0.547 4.644,-1.32 6.585,-2.316 1.95,-0.996 3.54,-2.254 4.778,-3.789 1.234,-1.531 2.066,-3.328 2.496,-5.371 0.426,-2.051 0.351,-4.375 -0.231,-6.973 l -0.339,-1.531 -10.555,2.351 c 0.582,2.598 0.566,4.7 -0.039,6.309 -0.606,1.602 -1.977,2.648 -4.113,3.125 -1.227,0.273 -2.29,0.324 -3.18,0.148 l -2.266,-0.988 -1.445,-1.797 -0.797,-2.312 c -0.371,-1.68 -0.332,-3.176 0.129,-4.485 0.457,-1.308 1.75,-2.703 3.879,-4.187 l 7.668,-5.567 c 1.836,-1.367 3.32,-2.707 4.445,-3.996 1.129,-1.297 1.965,-2.605 2.496,-3.925 0.539,-1.329 0.801,-2.704 0.801,-4.149 0,-1.445 -0.184,-3.008 -0.562,-4.699 -1.282,-5.75 -3.895,-9.617 -7.836,-11.57 -3.942,-1.965 -8.891,-2.278 -14.852,-0.95 -6.223,1.387 -10.355,3.77 -12.414,7.141 -2.059,3.379 -2.523,7.586 -1.398,12.625 l 0.492,2.227 11.008,-2.461" style="fill: #231f20; fill-opacity: 1; fill-rule: nonzero; stroke: none" /><path id="path76" d="m 617.633,664.973 -0.285,-9.239 -12.211,0.371 -1.403,-46.66 -11.273,0.332 1.402,46.672 -12.215,0.36 0.282,9.238 35.703,-1.074" style="fill: #231f20; fill-opacity: 1; fill-rule: nonzero; stroke: none" /><path id="path78" d="m 665.41,670.98 1.399,-9.132 -19.739,-3.016 1.985,-13.008 18.582,2.84 1.394,-9.141 -18.582,-2.839 2.278,-14.864 20.515,3.133 1.399,-9.14 -31.672,-4.833 -8.449,55.282 30.89,4.718" style="fill: #231f20; fill-opacity: 1; fill-rule: nonzero; stroke: none" /><path id="path80" d="m 701.887,656.137 4.422,1.601 c 2.546,0.918 4.296,2.227 5.246,3.926 0.933,1.699 0.894,3.973 -0.137,6.824 -1.75,4.864 -5.09,6.407 -10,4.641 l -5.012,-1.816 z m -18.907,19.16 19.598,7.07 c 4.426,1.59 8.262,1.719 11.524,0.371 3.261,-1.347 5.722,-4.308 7.375,-8.867 1.265,-3.535 1.597,-6.68 0.984,-9.433 -0.613,-2.747 -2.316,-4.981 -5.078,-6.7 l 0.058,-0.148 c 1.907,0.41 3.516,0.48 4.832,0.207 1.321,-0.274 2.5,-0.93 3.547,-1.973 1.035,-1.035 2.024,-2.472 2.93,-4.308 0.906,-1.836 1.895,-4.149 2.961,-6.934 1.055,-2.781 1.988,-4.852 2.793,-6.23 0.801,-1.375 1.785,-2.157 2.969,-2.344 l 0.156,-0.449 -11.621,-4.188 -1.965,2.156 c -0.496,0.911 -0.945,1.868 -1.375,2.883 l -3.938,9.988 c -0.839,2.024 -1.933,3.469 -3.281,4.309 -1.347,0.848 -3.113,0.879 -5.293,0.086 l -5.605,-2.02 8.027,-22.257 -10.605,-3.828 -18.993,52.609" style="fill: #231f20; fill-opacity: 1; fill-rule: nonzero; stroke: none" /><path id="path82" d="m 761.035,712.258 4.766,-7.918 -17.117,-10.305 6.785,-11.269 16.101,9.687 4.77,-7.918 -16.113,-9.687 7.753,-12.891 17.79,10.703 4.765,-7.922 -27.461,-16.511 -28.828,47.918 26.789,16.113" style="fill: #231f20; fill-opacity: 1; fill-rule: nonzero; stroke: none" /><path id="path84" d="m 816.355,695.48 3.711,3.372 c 1.438,1.296 2.375,2.605 2.832,3.933 0.454,1.328 0.415,2.813 -0.117,4.445 -0.523,1.629 -1.558,3.477 -3.101,5.536 -1.555,2.05 -3.606,4.492 -6.164,7.316 -2.137,2.363 -4.082,4.344 -5.828,5.965 -1.758,1.621 -3.418,2.812 -4.985,3.574 -1.57,0.762 -3.101,1.016 -4.598,0.754 -1.496,-0.266 -3.027,-1.105 -4.621,-2.551 l -3.535,-3.203 z m -40.339,27.715 13.703,12.414 c 2.898,2.637 5.672,4.278 8.308,4.95 2.637,0.664 5.243,0.558 7.832,-0.301 2.579,-0.871 5.164,-2.383 7.762,-4.543 2.59,-2.168 5.274,-4.774 8.039,-7.832 3.34,-3.672 5.985,-7.051 7.957,-10.117 1.985,-3.075 3.215,-5.977 3.711,-8.7 0.488,-2.714 0.219,-5.332 -0.828,-7.832 -1.047,-2.5 -2.969,-5.011 -5.754,-7.539 l -13.172,-11.933 -37.558,41.433" style="fill: #231f20; fill-opacity: 1; fill-rule: nonzero; stroke: none" /></g></g><text x="62" y="144" style="font-family: Arial Narrow; font-size: 10">BAS agent</text><text x="62.4" y="158" style="font-family: Arial Narrow; font-size: 10">95866015</text></svg>